# xmcd
#
# Track frame offsets:
#	150
#	15981
#	36166
#	57359
#	81008
#	92258
#	113160
#	134948
#	148123
#	163950
#	185033
#	203927
#	221781
#	240249
#	265071
#
# Disc length: 3762 seconds
#
# Revision: 1
# Processed by: cddbd v1.5.2PL0 Copyright (c) Steve Scherf et al.
# Submitted via: dBpowerAMP V4.0
#
DISCID=d80eb00f
DTITLE=varios - andalucia por la humanidad
DYEAR=1900
DGENRE=
TTITLE0=himno de andalucia
TTITLE1=caí
TTITLE2=volver a sevilla
TTITLE3=malagueña salerosa
TTITLE4=vuelvo a granada
TTITLE5=cordoba
TTITLE6=dejame que sea
TTITLE7=andaluces de jaen
TTITLE8=gloria bendita
TTITLE9=12por8
TTITLE10=banderas de andalucia
TTITLE11=verde,blancayverde
TTITLE12=si vienes al sur
TTITLE13=ahi estas tu
TTITLE14=no puedo quiotar mis ojos de ti
EXTD=
EXTT0=
EXTT1=
EXTT2=
EXTT3=
EXTT4=
EXTT5=
EXTT6=
EXTT7=
EXTT8=
EXTT9=
EXTT10=
EXTT11=
EXTT12=
EXTT13=
EXTT14=
PLAYORDER=
